# xmcd
#
# Track frame offsets:
#	150
#	11915
#	24311
#	36775
#	48761
#	61482
#	74589
#	85708
#	98820
#	111074
#	122932
#	133413
#	145282
#	158317
#	170529
#	183744
#	195919
#	209016
#	223435
#	236925
#	249473
#	263043
#	274902
#	287028
#	298217
#	309791
#	324123
#	335929
#
# Disc length: 4655 seconds
#
# Revision: 2
# Processed by: cddbd v1.5.2PL0 Copyright (c) Steve Scherf et al.
# Submitted via: audiograbber 1.83.01
#
DISCID=b5122d1c
DTITLE=Eddy Arnold - Bouquet Of Roses
DYEAR=1950
DGENRE=Country
TTITLE0=Boquet Of Roses
TTITLE1=I'll Hold You In My Heart
TTITLE2=Just A Little Lovin'
TTITLE3=I'm Throwing Rice
TTITLE4=What's Life Without You
TTITLE5=Anytime
TTITLE6=It's A Sin
TTITLE7=Take Me In Your Arms
TTITLE8=Texarkana Baby
TTITLE9=Don't Rob Another Man's Castle
TTITLE10=One Kiss Too Many
TTITLE11=A Heart Full Of Love
TTITLE12=Each Minute Seems A Million Years
TTITLE13=The Echo Of Your Footsteps
TTITLE14=To My Sorrow
TTITLE15=There's Not A Thing I Wouldn't Do
TTITLE16=Then I Turned And Walked Slowly
TTITLE17=That's How Much I Love You
TTITLE18=Why Should I Cry
TTITLE19=Chained To A Memory
TTITLE20=What A Fool I Was
TTITLE21=There's No Wings On My Angel
TTITLE22=I Couldn't Believe It Was True
TTITLE23=Show Me The Way Back To Your Heart
TTITLE24=Little Angel With A Dirty Face
TTITLE25=My Daddy's Only A Picture
TTITLE26=All Alone In This World
TTITLE27=Many Tears Ago
EXTD=
EXTT0=
EXTT1=
EXTT2=
EXTT3=
EXTT4=
EXTT5=
EXTT6=
EXTT7=
EXTT8=
EXTT9=
EXTT10=
EXTT11=
EXTT12=
EXTT13=
EXTT14=
EXTT15=
EXTT16=
EXTT17=
EXTT18=
EXTT19=
EXTT20=
EXTT21=
EXTT22=
EXTT23=
EXTT24=
EXTT25=
EXTT26=
EXTT27=
PLAYORDER=
